<?xml version="1.0" encoding="utf-8"?>
<!-- Generator: Adobe Illustrator 25.2.0, SVG Export Plug-In . SVG Version: 6.00 Build 0)  -->
<svg version="1.1" id="Layer_1" xmlns="http://www.w3.org/2000/svg" xmlns:xlink="http://www.w3.org/1999/xlink" x="0px" y="0px"
	 viewBox="0 0 11.6 11.6" style="enable-background:new 0 0 11.6 11.6;" xml:space="preserve">
<style type="text/css">
	.st0{fill:#4DC247;}
	.st1{fill:#FFFFFF;}
</style>
<g id="XMLID_52_">
	<g id="XMLID_1_">
		<g>
			<path class="st0" d="M7.2,6.3C7.1,6.5,6.9,6.8,6.8,6.9C6.7,7,6.6,7,6.5,7C6.4,6.9,5.9,6.8,5.4,6.3C5,5.9,4.7,5.5,4.6,5.3
				C4.5,5.2,4.6,5.1,4.7,5c0,0,0.1-0.1,0.2-0.2C4.9,4.7,5,4.7,5,4.6s0-0.2,0-0.2c0-0.1-0.3-0.7-0.4-1C4.5,3,4.3,3.1,4.3,3.1
				c-0.1,0-0.2,0-0.3,0s-0.2,0-0.4,0.2C3.5,3.4,3.1,3.7,3.1,4.4s0.5,1.3,0.6,1.4c0.1,0.1,1,1.5,2.4,2.1c1.4,0.6,1.4,0.4,1.7,0.3
				c0.3,0,0.8-0.3,0.9-0.7C8.8,7.3,8.8,7,8.8,6.9c0-0.1-0.1-0.1-0.3-0.2c-0.1-0.1-0.8-0.4-1-0.5C7.4,6.2,7.3,6.1,7.2,6.3z M1.1,5.6
				c0-2.6,2.2-4.7,4.8-4.7s4.8,2.1,4.7,4.8c0,2.6-2.2,4.7-4.8,4.7c-0.9,0-1.8-0.3-2.6-0.8l-1.8,0.6L2,8.4C1.4,7.6,1.1,6.6,1.1,5.6z"
				/>
			<path class="st1" d="M7.8,8.2C7.5,8.3,7.5,8.5,6.1,7.9c-1.4-0.6-2.3-2-2.4-2.1C3.6,5.7,3.1,5.1,3.1,4.4s0.4-1,0.5-1.1
				C3.8,3.1,3.9,3.1,4,3.1s0.2,0,0.3,0c0,0,0.2-0.1,0.3,0.3C4.7,3.7,5,4.3,5,4.4c0,0,0,0.1,0,0.2S4.9,4.7,4.9,4.8
				C4.8,4.9,4.7,5,4.7,5C4.6,5.1,4.5,5.2,4.6,5.3c0.1,0.2,0.4,0.6,0.8,1c0.5,0.5,1,0.6,1.1,0.7c0.1,0,0.2,0,0.3-0.1
				c0.1-0.1,0.3-0.4,0.4-0.6c0.1-0.2,0.2-0.1,0.3-0.1c0.2,0.1,0.9,0.4,1,0.5c0.2,0.1,0.3,0.1,0.3,0.2c0,0.1,0,0.4-0.1,0.6
				C8.6,7.9,8.1,8.2,7.8,8.2z"/>
			<path class="st1" d="M0.2,5.6C0.2,2.5,2.8,0,5.9,0s5.7,2.5,5.7,5.6S9,11.2,5.9,11.2c-1,0-1.9-0.3-2.7-0.7l-3.1,1l1-3
				C0.5,7.7,0.2,6.7,0.2,5.6z M5.9,0.9C3.3,0.9,1.1,3,1.1,5.6c0,1,0.3,2,0.9,2.8l-0.6,1.8l1.8-0.6c0.8,0.5,1.7,0.8,2.6,0.8
				c2.6,0,4.8-2.1,4.8-4.7C10.7,3,8.5,0.9,5.9,0.9z"/>
		</g>
		<g>
		</g>
	</g>
</g>
</svg>
